<?xml version="1.0" standalone="no"?><!DOCTYPE svg PUBLIC "-//W3C//DTD SVG 1.1//EN" "http://www.w3.org/Graphics/SVG/1.1/DTD/svg11.dtd"><svg t="1622705890527" class="icon" viewBox="0 0 1024 1024" version="1.1" xmlns="http://www.w3.org/2000/svg" p-id="5120" xmlns:xlink="http://www.w3.org/1999/xlink" width="200" height="200"><defs><style type="text/css"></style></defs><path d="M894.6688 84.8896H129.3312a107.52 107.52 0 0 0-107.52 107.52v515.4304a107.52 107.52 0 0 0 107.52 107.52h267.264v74.5984h-48.128a32.1536 32.1536 0 0 0 0 64.2048h327.0656a32.1536 32.1536 0 0 0 0-64.2048h-48.128v-74.5472h267.264a107.52 107.52 0 0 0 107.52-107.52V192.4096a107.52 107.52 0 0 0-107.52-107.52zM563.2 890.0096H460.8v-74.5984h102.4z m374.8352-182.1696a43.4176 43.4176 0 0 1-43.3664 43.3664H129.3312a43.4176 43.4176 0 0 1-43.3664-43.3664V192.4096a43.3664 43.3664 0 0 1 43.3664-43.3152h765.3376a43.3664 43.3664 0 0 1 43.3664 43.3152z" fill="#2c2c2c" p-id="5121"></path><path d="M813.5168 475.0336h-51.8656a22.8864 22.8864 0 0 1-20.224-12.1856c-3.072-5.8368-6.4-11.52-9.984-17.152a22.8352 22.8352 0 0 1-0.512-23.6544l14.1824-24.7296a56.8832 56.8832 0 0 0-21.0432-77.6704l-90.4192-51.712a56.7808 56.7808 0 0 0-77.5168 21.0432l-14.2336 24.832a22.8864 22.8864 0 0 1-20.48 11.4688c-6.6048-0.256-13.2096 0-19.8144 0a22.8352 22.8352 0 0 1-20.736-11.3152l-14.592-24.6784a56.7808 56.7808 0 0 0-77.6192-20.48L298.496 321.024a56.8832 56.8832 0 0 0-20.48 77.6704l14.2336 24.5248a22.8864 22.8864 0 0 1-0.512 23.808c-3.4816 5.5296-6.7584 11.2128-9.728 16.9984a22.9376 22.9376 0 0 1-20.48 12.4928L209.92 476.7232a33.4848 33.4848 0 0 0-33.4336 33.6384v118.3232a23.296 23.296 0 0 0 23.1936 23.296h624.64a23.296 23.296 0 0 0 23.296-23.296v-43.7248l-0.3072-76.4928a33.536 33.536 0 0 0-33.792-33.4336zM424.96 597.3504a87.04 87.04 0 0 1 174.08 0z m256 0a22.8864 22.8864 0 0 1-22.5792-20.1216 147.5072 147.5072 0 0 0-293.632 20.1216H244.5824a10.6496 10.6496 0 0 1-10.6496-10.6496v-47.3088a10.5984 10.5984 0 0 1 10.24-10.6496h0.3072c41.8816 0.6656 77.4144-23.3984 86.4256-39.7312C335.4624 481.28 337.92 477.9008 343.04 469.1456a81.92 81.92 0 0 0-0.6144-72.2432l-6.5536-11.4176a23.2448 23.2448 0 0 1 8.4992-31.744l39.4752-22.9376a23.3472 23.3472 0 0 1 31.8464 8.448l10.6496 18.3808A60.9792 60.9792 0 0 0 486.4 387.1232a210.5856 210.5856 0 0 1 49.8176 0 61.0816 61.0816 0 0 0 60.416-29.7984l10.5472-18.3808a23.296 23.296 0 0 1 31.7952-8.6016l39.5264 22.6304a23.3472 23.3472 0 0 1 8.6016 31.8464L678.8096 399.36a65.5872 65.5872 0 0 0-0.7168 64.0512c16.4352 30.3616 8.0896 17.7664 20.48 36.5056 13.2096 19.6608 37.376 27.3408 61.0816 27.2384l33.3824 0.7168v67.584z" fill="#2c2c2c" p-id="5122"></path></svg>