<?xml version="1.0" standalone="no"?><!DOCTYPE svg PUBLIC "-//W3C//DTD SVG 1.1//EN" "http://www.w3.org/Graphics/SVG/1.1/DTD/svg11.dtd"><svg t="1726137127034" class="icon" viewBox="0 0 1088 1024" version="1.1" xmlns="http://www.w3.org/2000/svg" p-id="2430" width="272" height="256" xmlns:xlink="http://www.w3.org/1999/xlink"><path d="M985.92 14.656l-400 295.936 74.368-174.4 325.632-121.6z" fill="#E17726" p-id="2431"></path><path d="M63.424 14.656l396.48 298.752-70.848-177.28L63.424 14.72zM841.856 700.992l-106.432 162.56 227.904 62.784 65.28-221.76-186.752-3.584zM20.992 704.448l64.832 221.76 227.52-62.72-106.048-162.56-186.304 3.52z" fill="#E27625" p-id="2432"></path><path d="M301.248 426.24l-63.36 95.488 225.536 10.24-7.488-242.688-154.688 136.96zM748.16 426.24L591.04 286.464l-5.12 245.44 225.536-10.24-63.36-95.552zM313.408 863.488l136.448-65.92-117.504-91.52-18.944 157.44zM599.488 797.568l136.064 65.92-18.56-157.44-117.504 91.52z" fill="#E27625" p-id="2433"></path><path d="M735.552 863.552l-136.064-65.92 11.072 88.384-1.216 37.504 126.208-59.968zM313.408 863.552l126.592 59.968-0.768-37.504 10.624-88.384-136.448 65.92z" fill="#D5BFB2" p-id="2434"></path><path d="M442.368 647.616L329.216 614.4l79.936-36.736 33.28 69.888zM606.976 647.616l33.28-69.888 80.256 36.736-113.536 33.152z" fill="#233447" p-id="2435"></path><path d="M313.472 863.616l19.776-162.56-125.824 3.52 106.048 159.04zM716.16 700.864l19.392 162.56 106.432-158.976-125.824-3.584zM811.456 521.728l-225.536 10.24 20.992 115.712 33.216-69.888 80.32 36.672 91.008-92.736zM329.344 614.464l79.872-36.672 33.28 69.824 20.928-115.584-225.472-10.24L329.344 614.4z" fill="#CC6228" p-id="2436"></path><path d="M237.952 521.728l94.528 184.32-3.2-91.52-91.328-92.8zM720.512 614.464l-3.52 91.584 94.528-184.32-91.008 92.8zM463.36 532.032l-20.992 115.584 26.496 136.576 5.952-179.968-11.52-72.256zM585.984 532.032l-11.072 71.808 5.568 180.352 26.496-136.576-20.992-115.584z" fill="#E27525" p-id="2437"></path><path d="M606.976 647.68l-26.496 136.512 19.008 13.44 117.504-91.52 3.52-91.584-113.536 33.152zM329.216 614.528l3.2 91.52 117.504 91.52 18.944-13.376-26.496-136.512-113.152-33.152z" fill="#F5841F" p-id="2438"></path><path d="M609.344 923.52l1.152-37.504-10.24-8.704H449.088l-9.856 8.704 0.768 37.504-126.592-60.032 44.288 36.288 89.792 62.016h153.92l90.24-62.016 43.904-36.288-126.208 60.032z" fill="#C0AC9D" p-id="2439"></path><path d="M599.488 797.632l-19.008-13.44H468.864l-18.944 13.44-10.688 88.448 9.856-8.704H600.32l10.24 8.704-11.008-88.448z" fill="#161616" p-id="2440"></path><path d="M1003.072 329.984l33.6-163.392-50.624-151.936-386.56 286.08L748.16 426.24l210.112 61.184 46.272-54.08-20.16-14.592 32-29.184-24.512-18.944 32.064-24.512-20.928-16.128zM12.672 166.592L46.72 329.984l-21.76 16.128 32.448 24.512-24.576 18.944 32.064 29.184-20.16 14.592 46.272 54.08 210.112-61.184L449.92 300.8 63.36 14.592 12.608 166.592z" fill="#763E1A" p-id="2441"></path><path d="M958.336 487.424L748.16 426.24l63.36 95.488-94.592 184.32 124.992-1.536h186.752l-70.4-217.088zM301.12 426.24l-210.112 61.184-70.016 217.088h186.304l125.056 1.536-94.528-184.32 63.296-95.488zM585.984 531.968l13.44-231.296 60.992-164.544H388.992l60.928 164.544 13.44 231.296 5.12 72.64 0.384 179.52H580.48l0.384-179.52 5.12-72.64z" fill="#F5841F" p-id="2442"></path></svg>